<svg xmlns="http://www.w3.org/2000/svg" xmlns:xlink="http://www.w3.org/1999/xlink" viewBox="0 0 833.39 500"><defs><style>.cls-1{isolation:isolate;}.cls-2{fill:url(#Degradado_sin_nombre_12);}.cls-3{opacity:0.7;mix-blend-mode:soft-light;}.cls-4{fill:none;stroke:#fff;stroke-miterlimit:10;}</style><linearGradient id="Degradado_sin_nombre_12" y1="250" x2="833.39" y2="250" gradientUnits="userSpaceOnUse"><stop offset="0" stop-color="#f8edd5"/><stop offset="0.34" stop-color="#d4cdda"/><stop offset="1" stop-color="#ebcccb"/></linearGradient></defs><title>fondo</title><g class="cls-1"><g id="Capa_1" data-name="Capa 1"><rect class="cls-2" width="833.39" height="500"/><g class="cls-3"><line class="cls-4" y1="7.67" x2="833.39" y2="7.67"/><line class="cls-4" y1="14.71" x2="833.39" y2="14.71"/><line class="cls-4" y1="21.74" x2="833.38" y2="21.74"/><line class="cls-4" y1="28.77" x2="833.39" y2="28.77"/><line class="cls-4" y1="35.81" x2="833.39" y2="35.81"/><line class="cls-4" y1="42.84" x2="833.39" y2="42.84"/><line class="cls-4" y1="49.87" x2="833.39" y2="49.87"/><line class="cls-4" y1="56.9" x2="833.39" y2="56.9"/><line class="cls-4" y1="63.94" x2="833.39" y2="63.94"/><line class="cls-4" y1="70.97" x2="833.39" y2="70.97"/><line class="cls-4" y1="78" x2="833.39" y2="78"/><line class="cls-4" y1="85.04" x2="833.39" y2="85.04"/><line class="cls-4" y1="92.07" x2="833.39" y2="92.07"/><line class="cls-4" y1="99.1" x2="833.39" y2="99.1"/><line class="cls-4" y1="106.13" x2="833.39" y2="106.13"/><line class="cls-4" y1="113.17" x2="833.39" y2="113.17"/><line class="cls-4" y1="120.2" x2="833.39" y2="120.2"/><line class="cls-4" y1="127.23" x2="833.39" y2="127.23"/><line class="cls-4" y1="134.27" x2="833.39" y2="134.27"/><line class="cls-4" y1="141.3" x2="833.39" y2="141.3"/><line class="cls-4" y1="148.33" x2="833.39" y2="148.33"/><line class="cls-4" y1="155.37" x2="833.39" y2="155.37"/><line class="cls-4" y1="162.4" x2="833.39" y2="162.4"/><line class="cls-4" y1="169.43" x2="833.39" y2="169.43"/><line class="cls-4" y1="176.46" x2="833.39" y2="176.46"/><line class="cls-4" y1="183.5" x2="833.39" y2="183.5"/><line class="cls-4" y1="190.53" x2="833.39" y2="190.53"/><line class="cls-4" y1="197.56" x2="833.39" y2="197.56"/><line class="cls-4" y1="204.6" x2="833.39" y2="204.6"/><line class="cls-4" y1="211.63" x2="833.39" y2="211.63"/><line class="cls-4" y1="218.66" x2="833.39" y2="218.66"/><line class="cls-4" y1="225.7" x2="833.39" y2="225.7"/><line class="cls-4" y1="232.73" x2="833.39" y2="232.73"/><line class="cls-4" y1="239.76" x2="833.39" y2="239.76"/><line class="cls-4" y1="246.79" x2="833.39" y2="246.79"/><line class="cls-4" y1="253.83" x2="833.39" y2="253.83"/><line class="cls-4" y1="260.86" x2="833.39" y2="260.86"/><line class="cls-4" y1="267.89" x2="833.39" y2="267.89"/><line class="cls-4" y1="274.93" x2="833.39" y2="274.93"/><line class="cls-4" y1="281.96" x2="833.39" y2="281.96"/><line class="cls-4" y1="288.99" x2="833.39" y2="288.99"/><line class="cls-4" y1="296.02" x2="833.39" y2="296.02"/><line class="cls-4" y1="303.06" x2="833.39" y2="303.06"/><line class="cls-4" y1="310.09" x2="833.39" y2="310.09"/><line class="cls-4" y1="317.12" x2="833.39" y2="317.12"/><line class="cls-4" y1="324.16" x2="833.39" y2="324.16"/><line class="cls-4" y1="331.19" x2="833.39" y2="331.19"/><line class="cls-4" y1="338.22" x2="833.39" y2="338.22"/><line class="cls-4" y1="345.25" x2="833.39" y2="345.25"/><line class="cls-4" y1="352.29" x2="833.39" y2="352.29"/><line class="cls-4" y1="359.32" x2="833.39" y2="359.32"/><line class="cls-4" y1="366.35" x2="833.39" y2="366.35"/><line class="cls-4" y1="373.39" x2="833.39" y2="373.39"/><line class="cls-4" y1="380.42" x2="833.39" y2="380.42"/><line class="cls-4" y1="387.45" x2="833.39" y2="387.45"/><line class="cls-4" y1="394.49" x2="833.39" y2="394.49"/><line class="cls-4" y1="401.52" x2="833.39" y2="401.52"/><line class="cls-4" y1="408.55" x2="833.39" y2="408.55"/><line class="cls-4" y1="415.58" x2="833.39" y2="415.58"/><line class="cls-4" y1="422.62" x2="833.39" y2="422.62"/><line class="cls-4" y1="429.65" x2="833.39" y2="429.65"/><line class="cls-4" y1="436.68" x2="833.39" y2="436.68"/><line class="cls-4" y1="443.72" x2="833.39" y2="443.72"/><line class="cls-4" y1="450.75" x2="833.39" y2="450.75"/><line class="cls-4" y1="457.78" x2="833.39" y2="457.78"/><line class="cls-4" y1="464.81" x2="833.39" y2="464.81"/><line class="cls-4" y1="471.85" x2="833.39" y2="471.85"/><line class="cls-4" y1="478.88" x2="833.39" y2="478.88"/><line class="cls-4" y1="485.91" x2="833.39" y2="485.91"/><line class="cls-4" y1="492.95" x2="833.39" y2="492.95"/></g></g></g></svg>