<svg id="Capa_1" data-name="Capa 1" xmlns="http://www.w3.org/2000/svg" viewBox="0 0 33.29 56.33"><defs><style>.cls-1{fill:#faf2f6;}.cls-2{fill:#583a8a;}</style></defs><title>relojarena</title><g id="_Grupo_" data-name="&lt;Grupo&gt;"><rect class="cls-1" x="5.12" y="51.21" width="23.04" height="2.56"/><polygon class="cls-1" points="20.48 25.61 20.48 23.04 23.04 23.04 23.04 20.48 25.6 20.48 25.6 17.92 28.16 17.92 28.16 7.68 5.12 7.68 5.12 17.92 7.68 17.92 7.68 20.48 10.24 20.48 10.24 23.04 12.8 23.04 12.8 25.61 15.36 25.61 15.36 30.73 12.8 30.73 12.8 33.28 10.24 33.28 10.24 35.85 7.68 35.85 7.68 38.41 5.12 38.41 5.12 48.65 28.16 48.65 28.16 38.41 25.6 38.41 25.6 35.85 23.04 35.85 23.04 33.28 20.48 33.28 20.48 30.73 17.92 30.73 17.92 25.61 20.48 25.61"/><rect class="cls-1" x="5.12" y="2.56" width="23.04" height="2.56"/><rect class="cls-2" x="10.24" y="12.8" width="2.56" height="2.56"/><rect class="cls-2" x="15.36" y="12.8" width="2.56" height="2.56"/><rect class="cls-2" x="20.48" y="12.8" width="2.56" height="2.56"/><rect class="cls-2" x="12.8" y="15.36" width="2.56" height="2.56"/><rect class="cls-2" x="15.36" y="17.92" width="2.56" height="2.56"/><rect class="cls-2" x="15.36" y="23.04" width="2.56" height="2.56"/><rect class="cls-2" x="17.92" y="15.36" width="2.56" height="2.56"/><path class="cls-2" d="M281.24,392.56v7.68h2.56V413h2.56v2.56h2.56v2.56h2.56v5.12h-2.56v2.56h-2.56v2.56H283.8v12.81h-2.56v7.68h33.29v-7.68H312V428.4h-2.56v-2.56h-2.56v-2.56h-2.56v-5.12h2.56V415.6h2.56V413H312v-12.8h2.56v-7.68Zm28.17,53.77H286.36v-2.56h23.05Zm0-35.85h-2.56V413h-2.56v2.56h-2.56v2.56h-2.56v5.12h2.56v2.56h2.56v2.56h2.56V431h2.56v10.25H286.36V431h2.56V428.4h2.56v-2.56H294v-2.56h2.56v-5.12H294V415.6h-2.56V413h-2.56v-2.56h-2.56V400.24h23.05Zm0-12.8H286.36v-2.56h23.05Z" transform="translate(-281.24 -392.56)"/><rect class="cls-2" x="15.36" y="33.29" width="2.56" height="2.56"/></g></svg>